<?xml version="1.0" encoding="iso-8859-1"?>
<!-- Generator: Adobe Illustrator 18.0.0, SVG Export Plug-In . SVG Version: 6.00 Build 0)  -->
<!DOCTYPE svg PUBLIC "-//W3C//DTD SVG 1.1//EN" "http://www.w3.org/Graphics/SVG/1.1/DTD/svg11.dtd">
<svg version="1.1" id="Capa_1" xmlns="http://www.w3.org/2000/svg" xmlns:xlink="http://www.w3.org/1999/xlink" x="0px" y="0px"
	 viewBox="0 0 430 430" style="enable-background:new 0 0 430 430;" xml:space="preserve">
<g>
	<path d="M136.224,233.087c-2.288,1.546-2.89,4.653-1.344,6.941c29.733,44.008,0.513,66.144-0.803,67.104
		c-2.233,1.609-2.747,4.724-1.144,6.965c0.976,1.365,2.512,2.092,4.072,2.092c1.006,0,2.022-0.303,2.904-0.933
		c0.408-0.292,10.063-7.31,15.174-20.958c8.41-22.458-1.839-44.953-11.917-59.868C141.62,232.142,138.511,231.54,136.224,233.087z"
		/>
	<path d="M99.561,140.516c-2.198,1.671-2.626,4.808-0.955,7.006c19.225,25.293,3.487,43.472,2.773,44.271
		c-1.847,2.036-1.703,5.186,0.327,7.045c0.96,0.88,2.169,1.313,3.376,1.313c1.354,0,2.702-0.546,3.688-1.623
		c0.225-0.245,22.216-24.933-2.203-57.058C104.897,139.271,101.759,138.845,99.561,140.516z"/>
	<path d="M237.332,210.406c-1.307-2.432-4.339-3.343-6.771-2.037c-2.432,1.308-3.345,4.338-2.038,6.771
		c0.641,1.193,15.957,29.531,38.104,55.55c0.989,1.161,2.395,1.759,3.81,1.759c1.146,0,2.297-0.392,3.238-1.192
		c2.103-1.79,2.356-4.945,0.567-7.049C252.809,239.028,237.484,210.69,237.332,210.406z"/>
	<path d="M201.848,214.823c-1.22-2.477-4.216-3.495-6.695-2.276c-2.477,1.221-3.496,4.217-2.276,6.694
		c0.194,0.395,19.756,39.88,47.181,75.024c0.986,1.264,2.458,1.924,3.945,1.924c1.076,0,2.159-0.346,3.073-1.059
		c2.177-1.698,2.564-4.841,0.866-7.018C221.169,253.806,202.038,215.209,201.848,214.823z"/>
	<path d="M162.61,226.254c-1.07-2.545-3.998-3.742-6.546-2.674c-2.545,1.068-3.743,3.998-2.675,6.544
		c0.718,1.712,17.979,42.366,51.878,80.393c0.988,1.108,2.358,1.673,3.734,1.673c1.184,0,2.372-0.418,3.325-1.268
		c2.062-1.838,2.243-4.998,0.405-7.06C179.991,267.134,162.78,226.658,162.61,226.254z"/>
	<path d="M100,262.189c-7.72,0-14,6.28-14,14s6.28,14,14,14s14-6.28,14-14S107.72,262.189,100,262.189z M100,280.189
		c-2.206,0-4-1.794-4-4s1.794-4,4-4s4,1.794,4,4S102.206,280.189,100,280.189z"/>
	<path d="M181.545,119.35c-1.935-1.969-5.101-1.998-7.071-0.063c-1.97,1.935-1.999,5.101-0.064,7.071
		c0.235,0.239,23.585,24.108,30.067,38.809c0.825,1.87,2.657,2.983,4.578,2.983c0.674,0,1.359-0.137,2.015-0.426
		c2.526-1.114,3.671-4.065,2.557-6.593C206.417,144.779,182.557,120.381,181.545,119.35z"/>
	<path d="M224.889,124.433c-1.935-1.969-5.101-1.999-7.071-0.063c-1.97,1.935-1.999,5.101-0.064,7.071
		c0.235,0.239,23.585,24.108,30.067,38.809c0.825,1.87,2.657,2.983,4.578,2.983c0.674,0,1.359-0.137,2.015-0.426
		c2.526-1.114,3.671-4.065,2.558-6.593C249.761,149.862,225.901,125.464,224.889,124.433z"/>
	<path d="M86,153.189c-7.72,0-14,6.28-14,14s6.28,14,14,14s14-6.28,14-14S93.72,153.189,86,153.189z M86,171.189
		c-2.206,0-4-1.794-4-4s1.794-4,4-4s4,1.794,4,4S88.206,171.189,86,171.189z"/>
	<path d="M366.767,82.528C326.194,47.365,272.296,28,215,28S103.806,47.365,63.233,82.528C22.457,117.868,0,164.914,0,215
		s22.457,97.132,63.233,132.472C103.806,382.635,157.704,402,215,402s111.194-19.365,151.767-54.528
		C407.543,312.132,430,265.086,430,215S407.543,117.868,366.767,82.528z M419.086,231.658c-4.616-4.123-10.868-9.346-17.571-13.915
		c0.016-0.897,0.025-1.812,0.025-2.743c0-9.748-1.977-29.922-6.221-42.302c-3.432-11.449-8.302-22.566-14.468-33.109
		c3.999-6.152,6.935-11.893,8.792-17.18C408.883,149.364,420,181.081,420,215C420,220.618,419.681,226.172,419.086,231.658z
		 M384.646,208.764c2.33-5.333,3.805-11.635,4.741-17.552c1.17,7.272,1.874,14.833,2.082,20.494
		C389.164,210.53,386.874,209.524,384.646,208.764z M374.453,148.595c1.093,2.009,2.146,4.033,3.138,6.081
		c-1.86-1.407-3.589-2.627-5.071-3.629C373.116,150.308,373.768,149.482,374.453,148.595z M370.826,136.602
		c-4.852,7.074-9.475,12.168-9.519,12.217c-1.021,1.119-1.48,2.641-1.248,4.138s1.131,2.809,2.444,3.565
		c0.12,0.069,9.408,5.473,17.526,13.334l-6.801,6.171l-40.941-13.144c-8.05-2.585-16.956-1.183-23.822,3.747
		c-9.939,7.138-28.758,19.507-45.772,24.386c-29.379-19.308-64.226-23.078-89.523-22.587c-8.527-16.17-29.651-37.773-30.603-38.742
		c-1.935-1.971-5.1-2-7.07-0.064c-1.97,1.935-1.999,5.1-0.065,7.07c0.203,0.206,17.54,17.941,26.49,32.241
		c-5.295,0.377-9.902,0.896-13.586,1.402c-8.184,1.125-15.605,5.656-20.36,12.43l-21.916,31.217
		c-7.343-1.811-25.787-6.737-39.77-13.625l5.794-1.288c2.696-0.599,4.396-3.27,3.796-5.966c-0.599-2.695-3.27-4.393-5.965-3.796
		l-10.596,2.354c5.889-27.246,23.343-67.617,74.888-80.832c2.511-0.646,5.112-1.229,7.731-1.73
		c43.801-8.371,85.523,1.861,112.813,11.921c11.697,4.311,23.281,9.556,33.504,15.172c5.518,3.026,10.532,6.092,14.903,9.11
		c0.835,0.577,1.826,0.886,2.841,0.886c1.267,0,2.71-0.035,4.293-0.104c9.378-0.42,33.787-2.783,57.828-15.648
		c3.389-1.815,6.664-3.781,9.81-5.888C376.129,128.3,373.75,132.341,370.826,136.602z M241.375,190.735
		c-9.364-1.147-19.422-1.836-30.136-1.836c-15.577,0-31.44,1.472-47.147,4.374c-16.383,3.027-30.053,8.185-41.472,14.527
		l13.541-19.288c3.164-4.507,8.099-7.521,13.538-8.27C167.165,177.842,206.31,175.052,241.375,190.735z M364.679,183.785
		l-29.891,27.124c-3.042,2.761-6.98,4.281-11.09,4.281c-2.715,0-5.407-0.675-7.784-1.952c-7.262-3.9-21.3-10.556-40.939-15.923
		c15.472-6.28,30.64-16.325,39.324-22.562c4.304-3.091,9.887-3.967,14.932-2.349L364.679,183.785z M195,64.189
		c9.02,0,17.244,4.602,21.993,12.138c-0.528,1.271-0.979,2.568-1.356,3.887c-6.269-1.389-12.19-2.259-17.598-2.759
		c-9.599-0.886-18.291-0.743-25.623-0.158C176.936,69.333,185.416,64.189,195,64.189z M307.699,136.167
		c-0.059,0.001-0.123,0.004-0.181,0.005c-4.11-2.771-8.708-5.558-13.673-8.307c-8.578-9.907-17.529-17.935-26.537-24.432
		c3.795-4.54,9.032-7.687,14.888-8.835c1.662-0.324,3.362-0.488,5.054-0.488c14.336,0,26,11.663,26,26
		C313.25,125.972,311.292,131.602,307.699,136.167z M250.25,64.109c12.852,0,23.649,9.495,25.656,21.834
		c-6.683,2.216-12.57,6.356-16.936,11.903c-11.505-7.128-22.94-11.939-33.645-15.126c0.446-1.505,1.022-2.972,1.742-4.385
		C231.529,69.561,240.412,64.109,250.25,64.109z M197.118,87.414c25.543,2.362,48.423,11.429,68.327,27.022
		c-2.402-0.965-4.815-1.906-7.236-2.798c-27.2-10.026-68.211-20.191-111.97-13.416l6.571-7.634
		C157.556,89.322,174.757,85.346,197.118,87.414z M319.936,135.193c2.163-4.684,3.314-9.814,3.314-15.084c0-19.851-16.149-36-36-36
		c-0.502,0-1.004,0.016-1.506,0.037c-0.762-4.521-2.381-8.759-4.675-12.55c30.394,10.744,57.151,28.836,76.925,52.725
		C343.721,130.99,329.768,133.917,319.936,135.193z M222.593,67.066c-2.166-2.592-4.667-4.84-7.424-6.705
		c4.71,0.004,9.389,0.187,14.037,0.514C226.764,62.636,224.544,64.715,222.593,67.066z M160.879,78.688
		c-7.48,1.22-11.99,2.609-12.383,2.733c-0.888,0.279-1.679,0.802-2.286,1.507l-16.053,18.652
		c-27.071,7.298-48.232,22.305-62.884,44.664c-12.052,18.391-17.099,37.969-19.21,51.154c-0.291,1.816,0.439,3.646,1.9,4.763
		c13.225,10.113,37.756,17.406,49.945,20.586c0,0-17.89,22.344-22.297,30.423c-9.4,17.234-12.795,33.261-13.987,41.318
		C47.657,271.245,38.46,244.047,38.46,215c0-71.155,55.153-131.229,129.975-149.17C165.109,69.464,162.509,73.815,160.879,78.688z
		 M258.918,331.822l11.208,30.144c-17.49,5.009-36.046,7.674-55.126,7.674c-55.485,0-105.064-22.545-137.452-57.718
		c21.468,12.116,68.787,34.285,127.637,34.285c0.958,0,1.914-0.006,2.877-0.018C230.529,345.908,246.594,340.352,258.918,331.822z
		 M279.679,358.963l-12.54-33.727c10.828-9.96,18.454-22.42,25.596-35.029c2.805,8.63,8.057,19.363,17.653,25.244
		c0.815,0.5,1.717,0.738,2.608,0.738c1.675,0,3.311-0.842,4.256-2.369c4.435-7.164,6.468-17.011,7.38-23.584
		c7.806,2.971,16.637,5.056,25.899,5.93c2.323,0.22,4.596,0.329,6.82,0.329c2.757,0,5.439-0.171,8.048-0.509
		C345.049,325.016,314.863,346.875,279.679,358.963z M315.083,285.881c-0.422,4.041-1.458,11.289-3.837,17.512
		c-7.813-8.049-10.6-21.395-11.345-25.891c0.421-0.735,0.844-1.47,1.271-2.205C304.682,279.227,309.433,282.814,315.083,285.881z
		 M351.47,286.212c-22.425-2.116-39.038-11.492-44.76-20.043c3.24-5.07,6.741-10.01,10.666-14.67
		c3.198-0.567,11.614-1.46,21.296,2.344c0.859,0.338,1.771,0.7,2.731,1.081c12.263,4.869,33.346,13.239,53.106,13.239
		c0.054,0,0.106,0,0.16-0.001C383.194,282.3,369.537,287.912,351.47,286.212z M384.792,257.474
		c-14.981-2.033-30.182-8.065-39.699-11.844c-0.972-0.386-1.895-0.753-2.765-1.094c-4.098-1.61-8.028-2.538-11.605-3.036
		c3.01-0.954,6.208-1.312,9.393-0.993c15.32,1.53,33.067,3,48.172,4.169C387.333,248.979,386.161,253.256,384.792,257.474z
		 M341.11,230.556c-1.101-0.109-2.219-0.165-3.324-0.165c-9.351,0-18.368,3.966-24.738,10.882
		c-11.076,12.022-18.741,25.698-26.154,38.924c-16.661,29.724-31.049,55.395-78.957,55.993
		c-59.464,0.75-108.16-23.108-127.768-34.368l6.241-1.835c2.649-0.779,4.166-3.559,3.386-6.208c-0.779-2.648-3.56-4.167-6.208-3.386
		l-9.605,2.825c1.427-7.947,4.805-21.446,12.599-35.614c4.744-8.623,10.397-16.286,16.925-22.991
		c0.365-0.281,0.698-0.613,0.984-1.003c15.633-15.614,36.184-25.841,61.416-30.503c15.109-2.792,30.361-4.208,45.33-4.208
		c20.982,0,39.346,2.708,54.616,6.385c0.212,0.069,0.425,0.119,0.642,0.159c21.726,5.3,37.102,12.531,44.685,16.605
		c3.828,2.055,8.155,3.142,12.516,3.142c6.599,0,12.924-2.442,17.81-6.876l38.809-35.215c-0.946,9.208-3.047,20.398-7.316,26.091
		c-1.104,1.473-1.311,3.434-0.536,5.104c0.775,1.67,2.405,2.779,4.243,2.888c8.624,0.508,22.263,10.441,32.342,19.02
		C392.318,234.993,363.983,232.841,341.11,230.556z M215,392c-113.038,0-205-79.402-205-177S101.962,38,215,38
		c67.741,0,127.902,28.523,165.249,72.382c-4.101,3.362-8.524,6.438-13.219,9.193C331.994,76.16,275.523,50.359,215,50.359
		C112.142,50.359,28.46,124.217,28.46,215c0,90.782,83.682,164.64,186.54,164.64c69.409,0,132.397-33.525,164.867-87.587
		c11.409-4.924,21.137-13.963,29.38-27.224c1.052-1.693,0.999-3.85-0.137-5.487c-1.135-1.638-3.134-2.445-5.09-2.056
		c-2.878,0.576-5.883,0.843-8.958,0.875c1.285-4.2,2.382-8.451,3.285-12.72c7.606,0.568,14.013,1.024,18.339,1.327
		C399.302,329.258,315.48,392,215,392z"/>
</g>
<g>
</g>
<g>
</g>
<g>
</g>
<g>
</g>
<g>
</g>
<g>
</g>
<g>
</g>
<g>
</g>
<g>
</g>
<g>
</g>
<g>
</g>
<g>
</g>
<g>
</g>
<g>
</g>
<g>
</g>
</svg>
